<svg version="1.2" xmlns="http://www.w3.org/2000/svg" viewBox="0 0 250 111" width="250" height="111">
	<title>New Project</title>
	<style>
		.s0 { fill: #67c148 } 
		.s1 { fill: #11379d } 
	</style>
	<g id="Folder 1">
		<path id="&lt;Compound Path&gt;" fill-rule="evenodd" class="s0" d="m61.1 37.2c4.5-5.1 10.9-8.4 17.7-8.9 9.5-0.8 19.3 4.3 24.2 12.6 3 5.2 4.8 11 6.9 16.6q4.1 11.1 8.1 22.2-5.5 0-10.9 0-2.2-6-4.3-12c-2.8 5.3-7.3 9.8-12.9 11.9-4.4 1.8-9.3 2.1-14 1.3-5.9-1.1-11.3-4.3-15.2-8.9-4.4-5.2-6.6-12-6.3-18.8 0.3-5.9 2.8-11.6 6.7-16zm16.3 1.4c-4.6 1-8.6 4.1-10.8 8.2-2.3 4.3-2.4 9.7-0.7 14.2 1.3 3.8 4.2 7.1 7.8 8.8 3.6 1.7 7.9 2 11.7 0.9 3.6-1 6.7-3.4 8.8-6.5 2.8-4.2 3.5-9.7 2-14.6-1.4-4.4-4.8-8.2-9.1-10-3-1.4-6.5-1.7-9.7-1z"/>
		<path id="&lt;Path&gt;" class="s0" d="m30.2 38.8l-5.8-0.7h-4.9c-2.7 0-10.2 0.5-12.1-0.4-3.8-1.7-3-5.9-3.1-9.4h16.7c4.2 0 8.5-0.3 12.6 0.9 3.3 0.8 7 2.6 9.1 4.5 5.7 4.9 9.1 10 9.4 17.9 0.3 9.1-4.3 18.1-12.6 22.3-2.8 1.4-4.9 2.3-8.2 2.7-4.2 0.6-8.7 0.3-13 0.4-2.3 0.8-3.8 1.9-4.1 4.7-1.4 13.9 3.9 17.4-9.9 17.5 0.1-5-0.5-18.3 0.7-22 1.5-4.4 5.7-8.7 10-9.7 4-0.8 7.9-0.5 12-0.5 5.8-0.2 10.4-2.4 13.3-7.5 1.4-2.2 2-5.4 1.7-8.5-0.7-6.1-5.7-11.3-11.8-12.2z"/>
		<path id="je " fill-rule="evenodd" class="s1" d="m175.4 83.7v-55.4h8.9v58.7q0 10.4-3.6 15.5-3.5 5.1-11.3 5.1-0.9 0-1.7 0-0.8-0.1-1.7-0.2v-7.6q3.2 0 4.9-0.9 1.9-1 2.9-3 1-2 1.3-5 0.3-3.1 0.3-7.2zm-1.9-72.3q0-2.6 1.7-4.3 1.8-1.9 4.4-1.9 2.7 0 4.6 1.9 1.9 1.7 1.9 4.3 0 2.6-1.9 4.2-1.9 1.7-4.6 1.7-2.6 0-4.4-1.7-1.7-1.6-1.7-4.2zm67.1 61.7l3.4 6.4q-3.4 2.7-8.5 4.3-5 1.5-10.7 1.5-6.3 0-11-2-4.7-2.1-7.7-5.9-3-3.9-4.4-9.2-1.5-5.4-1.5-12 0-14.3 6.4-21.8 6.3-7.4 18.1-7.4 3.8 0 7.6 0.9 3.8 0.8 6.8 3.1 3 2.3 4.9 6.7 1.9 4.2 1.9 11.2 0 3.7-0.7 8.2h-35.7q0 4.9 1 8.6 1 3.8 3.1 6.5 2.1 2.6 5.4 4 3.5 1.3 8.4 1.3 3.8 0 7.6-1.3 3.8-1.3 5.6-3.1zm-15.8-38.3q-6.5 0-10.5 3.4-3.9 3.5-4.7 11.8h27.6q0-8.4-3.2-11.8-3.3-3.4-9.2-3.4z"/>
		<g id="&lt;Group&gt;">
			<path id="&lt;Path&gt;" class="s0" d="m163.7 28.7c0 5.6 0.3 45.6-0.1 49-0.9 6.8-3.7 10.7-8.2 15.3-6.7 6.7-16.3 6.6-25.3 6.5q-2.7 0-5.2 0c0-10 1.3-9.7 10.9-9.8 3.1-0.1 6.1-0.3 8.7-1.4 4.3-1.9 7.2-5.4 8.6-9.9l0.7-5.3c-2.3 1.2-3.6 2.1-6.4 3.2-13.5 3.8-23.1-2-28.4-10.2-3.4-5.3-4-9.4-4-16.7q0-10.3 0.1-20.7c12.3-0.1 9.7 1.7 9.9 21.4 0.1 8.8 3.5 16.4 13.3 17.5 10.5 0.3 15.5-7 15.5-16.7 0-5.3-0.1-10.7 0-16 0.1-6.7 3.9-6.2 9.9-6.2z"/>
		</g>
	</g>
</svg>